HIERARCHY
ROOT Hips
{
	OFFSET 0.000000 0.000000 0.000000
	CHANNELS 6 Xposition Yposition Zposition Zrotation Yrotation Xrotation 
	JOINT LHipJoint
	{
		OFFSET 0.000000 0.000000 0.000000
		CHANNELS 3 Zrotation Yrotation Xrotation
		JOINT LeftUpLeg
		{
			OFFSET 1.363060 -1.794630 0.839290
			CHANNELS 3 Zrotation Yrotation Xrotation
			JOINT LeftLeg
			{
				OFFSET 2.448110 -6.726130 0.000000
				CHANNELS 3 Zrotation Yrotation Xrotation
				JOINT LeftFoot
				{
					OFFSET 2.562200 -7.039590 0.000000
					CHANNELS 3 Zrotation Yrotation Xrotation
					JOINT LeftToeBase
					{
						OFFSET 0.157640 -0.433110 2.322550
						CHANNELS 3 Zrotation Yrotation Xrotation
						End Site
						{
							OFFSET 0.000000 0.000000 0.000000
						}
					}
				}
			}
		}
	}
	JOINT RHipJoint
	{
		OFFSET 0.000000 0.000000 0.000000
		CHANNELS 3 Zrotation Yrotation Xrotation
		JOINT RightUpLeg
		{
			OFFSET -1.305520 -1.794630 0.839290
			CHANNELS 3 Zrotation Yrotation Xrotation
			JOINT RightLeg
			{
				OFFSET -2.542530 -6.985550 0.000000
				CHANNELS 3 Zrotation Yrotation Xrotation
				JOINT RightFoot
				{
					OFFSET -2.568260 -7.056230 0.000000
					CHANNELS 3 Zrotation Yrotation Xrotation
					JOINT RightToeBase
					{
						OFFSET -0.164730 -0.452590 2.363150
						CHANNELS 3 Zrotation Yrotation Xrotation
						End Site
						{
							OFFSET 0.000000 0.000000 0.000000
						}
					}
				}
			}
		}
	}
	JOINT LowerBack
	{
		OFFSET 0.000000 0.000000 0.000000
		CHANNELS 3 Zrotation Yrotation Xrotation
		JOINT Spine
		{
			OFFSET 0.028270 2.035590 -0.193380
			CHANNELS 3 Zrotation Yrotation Xrotation
			JOINT Spine1
			{
				OFFSET 0.056720 2.048850 -0.042750
				CHANNELS 3 Zrotation Yrotation Xrotation
				JOINT Neck
				{
					OFFSET 0.000000 0.000000 0.000000
					CHANNELS 3 Zrotation Yrotation Xrotation
					JOINT Neck1
					{
						OFFSET -0.054170 1.746240 0.172020
						CHANNELS 3 Zrotation Yrotation Xrotation
						JOINT Head
						{
							OFFSET 0.104070 1.761360 -0.123970
							CHANNELS 3 Zrotation Yrotation Xrotation
							End Site
							{
								OFFSET 0.000000 0.000000 0.000000
							}
						}
					}
				}
				JOINT LeftShoulder
				{
					OFFSET 0.000000 0.000000 0.000000
					CHANNELS 3 Zrotation Yrotation Xrotation
					JOINT LeftArm
					{
						OFFSET 3.362410 1.200890 -0.311210
						CHANNELS 3 Zrotation Yrotation Xrotation
						JOINT LeftForeArm
						{
							OFFSET 4.983000 -0.000000 -0.000000
							CHANNELS 3 Zrotation Yrotation Xrotation
							JOINT LeftHand
							{
								OFFSET 3.483560 -0.000000 -0.000000
								CHANNELS 3 Zrotation Yrotation Xrotation
								JOINT LeftFingerBase
								{
									OFFSET 0.000000 0.000000 0.000000
									CHANNELS 3 Zrotation Yrotation Xrotation
									JOINT LeftHandIndex1
									{
										OFFSET 0.715260 -0.000000 -0.000000
										CHANNELS 3 Zrotation Yrotation Xrotation
										End Site
										{
											OFFSET 0.000000 0.000000 0.000000
										}
									}
								}
								JOINT LThumb
								{
									OFFSET 0.000000 0.000000 0.000000
									CHANNELS 3 Zrotation Yrotation Xrotation
									End Site
									{
										OFFSET 0.000000 0.000000 0.000000
									}
								}
							}
						}
					}
				}
				JOINT RightShoulder
				{
					OFFSET 0.000000 0.000000 0.000000
					CHANNELS 3 Zrotation Yrotation Xrotation
					JOINT RightArm
					{
						OFFSET -3.136600 1.374050 -0.404650
						CHANNELS 3 Zrotation Yrotation Xrotation
						JOINT RightForeArm
						{
							OFFSET -5.241900 -0.000000 -0.000000
							CHANNELS 3 Zrotation Yrotation Xrotation
							JOINT RightHand
							{
								OFFSET -3.444170 -0.000000 -0.000000
								CHANNELS 3 Zrotation Yrotation Xrotation
								JOINT RightFingerBase
								{
									OFFSET 0.000000 0.000000 0.000000
									CHANNELS 3 Zrotation Yrotation Xrotation
									JOINT RightHandIndex1
									{
										OFFSET -0.622530 -0.000000 -0.000000
										CHANNELS 3 Zrotation Yrotation Xrotation
										End Site
										{
											OFFSET 0.000000 0.000000 0.000000
										}
									}
								}
								JOINT RThumb
								{
									OFFSET 0.000000 0.000000 0.000000
									CHANNELS 3 Zrotation Yrotation Xrotation
									End Site
									{
										OFFSET 0.000000 0.000000 0.000000
									}
								}
							}
						}
					}
				}
			}
		}
	}
}
MOTION
Frames: 11
Frame Time: 0.016667
-1.709367 17.067923 24.182718 4.672299 -2.998674 6.017024 -4.959996 -10.085981 8.074096 -3.739574 -33.896076 -1.965139 18.780737 2.815825 -42.646999 0.180516 -21.811360 37.287121 0.000000 0.000000 0.000000 11.932526 1.873857 2.432939 -3.317831 -3.560100 4.938227 -0.436232 -19.939499 32.723748 11.808977 -41.600861 32.238747 0.000000 0.000000 0.000000 0.401994 6.222514 -3.262031 -6.857831 5.852148 28.303592 0.474577 1.367063 -17.485899 10.162564 -4.899970 -8.209041 -6.429622 -0.576356 2.572198 0.000000 0.000000 0.000000 4.132365 4.694830 8.231025 -68.334556 -5.181140 19.781562 -7.860952 -82.364331 0.589756 1.969543 -11.505947 0.292569 1.980581 -11.509546 0.000000 0.000000 0.000000 0.000000 0.000000 0.000000 0.000000 -11.395623 5.210794 -8.847807 87.043338 4.015392 32.166500 82.444920 24.639998 -157.409134 41.778539 -83.562813 12.022384 38.665247 -80.213420 0.000000 0.000000 0.000000 0.000000 0.000000 0.000000 0.000000 
-1.723957 17.094648 24.371007 5.073548 -3.732492 6.175371 -4.226617 -11.003381 7.804193 -5.393427 -35.649027 -0.374967 19.937367 6.873005 -42.554711 1.328545 -21.075468 35.551744 0.000000 0.000000 0.000000 11.975470 1.542772 3.051008 -3.914628 -3.244965 4.383717 -0.558962 -19.458604 32.654194 11.633119 -42.675893 33.297412 0.000000 0.000000 0.000000 0.097217 6.555580 -3.572316 -6.973646 6.180506 28.007088 0.248591 1.566396 -17.424029 10.110465 -4.916462 -7.686768 -6.428035 -0.581478 2.666718 0.000000 0.000000 0.000000 4.399127 4.165577 8.490712 -68.252278 -5.154154 19.757785 -7.955155 -82.266703 0.587567 1.972804 -11.533935 0.291424 1.984406 -11.537451 0.000000 0.000000 0.000000 0.000000 0.000000 0.000000 0.000000 -11.718451 5.622314 -9.921382 87.139261 3.162539 33.312621 84.048824 23.172724 -157.661235 41.747672 -83.266924 11.918822 38.736660 -79.925903 0.000000 0.000000 0.000000 0.000000 0.000000 0.000000 0.000000 
-1.735962 17.122660 24.555608 5.463432 -4.478774 6.333337 -3.490885 -11.829652 7.432499 -7.234580 -37.434767 1.258625 20.747910 11.089672 -42.258732 2.495657 -20.649987 33.478066 0.000000 0.000000 0.000000 11.998756 1.205628 3.660714 -4.500198 -2.930273 3.819510 -0.665595 -18.944317 32.572739 11.401631 -43.676433 34.317271 0.000000 0.000000 0.000000 -0.207768 6.794828 -3.812800 -7.147492 6.414704 27.957899 0.116488 1.747270 -17.435670 10.089804 -4.904249 -7.612527 -6.396397 -0.580641 2.683901 0.000000 0.000000 0.000000 4.501631 3.977886 8.537641 -68.205584 -5.166914 19.782144 -8.065377 -82.209955 0.588399 1.957299 -11.544914 0.291836 1.968851 -11.548489 0.000000 0.000000 0.000000 0.000000 0.000000 0.000000 0.000000 -11.835951 5.707183 -10.166044 86.673201 2.892135 33.587696 84.668742 24.017306 -157.633728 41.946859 -83.450062 12.052984 38.785682 -80.149886 0.000000 0.000000 0.000000 0.000000 0.000000 0.000000 0.000000 
-1.745020 17.151507 24.735880 5.831697 -5.194284 6.479019 -2.771153 -12.511754 6.960413 -9.264534 -39.151398 2.911158 21.179440 15.272441 -41.805462 3.690205 -20.637729 31.056476 0.000000 0.000000 0.000000 12.007331 0.853644 4.265668 -5.058095 -2.623983 3.254726 -0.750694 -18.403900 32.478944 11.119933 -44.602525 35.298191 0.000000 0.000000 0.000000 -0.516534 6.937776 -3.996241 -7.348787 6.554523 28.054378 0.085223 1.882022 -17.466445 10.096585 -4.877678 -7.836699 -6.353189 -0.576042 2.641639 0.000000 0.000000 0.000000 4.479006 4.084352 8.431892 -68.190660 -5.195121 19.835663 -8.200246 -82.179970 0.592423 1.910601 -11.515439 0.293914 1.921238 -11.519279 0.000000 0.000000 0.000000 0.000000 0.000000 0.000000 0.000000 -11.783590 5.577740 -9.799283 86.028077 3.064967 33.258068 84.463959 26.101671 -157.436469 42.223755 -83.879552 12.299841 38.799613 -80.630040 0.000000 0.000000 0.000000 0.000000 0.000000 0.000000 0.000000 
-1.750529 17.180763 24.911785 6.178425 -5.862493 6.616848 -2.066368 -13.021448 6.390643 -11.487969 -40.734548 4.569939 21.240817 19.298933 -41.258823 4.949493 -21.106303 28.275613 0.000000 0.000000 0.000000 11.999622 0.485857 4.864229 -5.581400 -2.324739 2.690139 -0.814504 -17.841808 32.376029 10.790558 -45.451509 36.244813 0.000000 0.000000 0.000000 -0.831398 6.978348 -4.114555 -7.575496 6.596118 28.292348 0.166491 1.967354 -17.525891 10.132018 -4.837397 -8.361867 -6.299377 -0.567817 2.540747 0.000000 0.000000 0.000000 4.330690 4.492578 8.175739 -68.210643 -5.235468 19.923412 -8.361232 -82.177067 0.599906 1.830932 -11.443445 0.297794 1.839747 -11.447757 0.000000 0.000000 0.000000 0.000000 0.000000 0.000000 0.000000 -11.552944 5.220603 -8.821475 85.268912 3.671274 32.280010 83.456634 29.342824 -157.084253 42.560203 -84.547103 12.643241 38.782278 -81.349095 0.000000 0.000000 0.000000 0.000000 0.000000 0.000000 0.000000 
-1.752989 17.210066 25.082789 6.507632 -6.482560 6.762753 -1.374876 -13.354519 5.734847 -13.879015 -42.134019 6.208790 20.982606 23.096839 -40.671662 6.324175 -22.075247 25.144959 0.000000 0.000000 0.000000 11.973173 0.110791 5.446492 -6.067348 -2.027373 2.124590 -0.855361 -17.261627 32.269083 10.422566 -46.223604 37.155126 0.000000 0.000000 0.000000 -1.146972 6.911733 -4.141369 -7.837423 6.536841 28.704439 0.350403 2.018210 -17.673325 10.195739 -4.776118 -9.256099 -6.220792 -0.554954 2.380942 0.000000 0.000000 0.000000 4.038477 5.230269 7.750440 -68.261670 -5.293771 20.058854 -8.508978 -82.223753 0.610645 1.732103 -11.344714 0.303355 1.738411 -11.349632 0.000000 0.000000 0.000000 0.000000 0.000000 0.000000 0.000000 -11.131456 4.545261 -7.154929 84.295995 4.723927 30.424836 81.687628 34.173986 -156.565121 43.005914 -85.558910 13.116086 38.755362 -82.406834 0.000000 0.000000 0.000000 0.000000 0.000000 0.000000 0.000000 
-1.752729 17.239144 25.249038 6.823661 -7.059591 6.930353 -0.685217 -13.522143 4.998271 -16.422882 -43.332454 7.815311 20.453217 26.666665 -40.072848 7.889149 -23.549753 21.642952 0.000000 0.000000 0.000000 11.926860 -0.260785 6.004497 -6.514638 -1.725427 1.557920 -0.875020 -16.663779 32.163046 10.023875 -46.922239 38.033168 0.000000 0.000000 0.000000 -1.468369 6.735289 -4.050362 -8.129141 6.377921 29.266071 0.653303 2.036008 -17.947310 10.280510 -4.696338 -10.521706 -6.117724 -0.537979 2.167949 0.000000 0.000000 0.000000 3.603260 6.326566 7.165939 -68.339656 -5.353869 20.258384 -8.643526 -82.323371 0.625309 1.611491 -11.217745 0.310933 1.614535 -11.223409 0.000000 0.000000 0.000000 0.000000 0.000000 0.000000 0.000000 -10.496283 3.491485 -4.824266 83.259414 6.244018 27.451863 79.236479 40.370338 -155.955991 43.492679 -86.861072 13.651082 38.734964 -83.718188 -0.000000 0.000000 0.000000 0.000000 0.000000 0.000000 0.000000 
-1.750436 17.267793 25.410681 7.154373 -7.573442 7.113875 0.002368 -13.551726 4.188487 -19.120140 -44.329484 9.392446 19.682184 30.059164 -39.464557 9.743088 -25.539937 17.703526 0.000000 0.000000 0.000000 11.842674 -0.632056 6.540746 -6.921738 -1.419568 0.997441 -0.873572 -16.049126 32.062168 9.602306 -47.554030 38.885425 0.000000 0.000000 0.000000 -1.750811 6.505639 -3.850599 -8.421709 6.168017 29.839337 0.885092 2.050200 -18.352027 10.328076 -4.606258 -11.916909 -5.983136 -0.519412 1.957638 0.000000 0.000000 0.000000 3.146977 7.500072 6.558225 -68.371744 -5.402959 20.482495 -8.699857 -82.473534 0.639147 1.523073 -11.131743 0.318051 1.523410 -11.137993 0.000000 0.000000 0.000000 0.000000 0.000000 0.000000 0.000000 -9.878739 2.148347 -2.384896 82.079594 7.744771 23.674822 77.010402 47.464544 -155.477213 44.006532 -88.319355 14.148494 38.820742 -85.119210 -0.000000 0.000000 0.000000 0.000000 0.000000 0.000000 0.000000 
-1.746482 17.295923 25.567938 7.507360 -8.040238 7.316594 0.696609 -13.449314 3.308200 -21.959067 -45.114469 10.927360 18.686704 33.342990 -38.848271 12.003248 -28.041501 13.231159 0.000000 0.000000 0.000000 11.718105 -0.991553 7.053849 -7.290681 -1.101027 0.445558 -0.856860 -15.413820 31.971862 9.165760 -48.123047 39.717602 0.000000 0.000000 0.000000 -1.989788 6.204904 -3.538647 -8.694668 5.882484 30.344637 1.005700 2.035968 -18.853578 10.298386 -4.511840 -13.371456 -5.819058 -0.499937 1.754894 0.000000 0.000000 0.000000 2.687314 8.773611 5.952958 -68.328481 -5.413176 20.704132 -8.666826 -82.678389 0.650994 1.473145 -11.091571 0.324118 1.471496 -11.098218 0.000000 0.000000 0.000000 0.000000 0.000000 0.000000 0.000000 -9.303319 0.485638 0.067745 80.858652 9.160134 18.946319 75.177552 55.295810 -155.298814 44.425393 -89.788207 14.460573 39.065958 -86.407554 -0.000000 0.000000 0.000000 0.000000 0.000000 0.000000 0.000000 
-1.741419 17.323504 25.721349 7.887748 -8.349192 7.424489 1.385073 -13.253754 2.414060 -24.914893 -45.686391 12.464932 17.444603 36.596752 -38.218470 14.809764 -31.058959 8.062548 0.000000 0.000000 0.000000 11.556557 -1.404945 7.628125 -7.603663 -0.788331 -0.065173 -0.816706 -14.759560 31.880638 8.718375 -48.628567 40.545449 0.000000 0.000000 0.000000 -2.182868 6.038218 -3.370468 -8.853055 5.709356 30.457795 0.790262 2.025004 -19.117168 10.196564 -4.451998 -13.962068 -5.683206 -0.488735 1.690895 0.000000 0.000000 0.000000 2.550278 9.248528 5.730147 -68.199650 -5.410808 20.743369 -8.479910 -82.841485 0.649802 1.538902 -11.173530 0.323451 1.538163 -11.179922 0.000000 0.000000 0.000000 0.000000 0.000000 0.000000 0.000000 -9.290760 -0.473217 0.964092 79.933126 9.229106 16.520054 75.219675 60.247014 -155.521276 -135.316587 -89.425584 -165.497707 39.401520 -87.018110 -0.000000 0.000000 0.000000 0.000000 0.000000 0.000000 0.000000 
-1.735465 17.350538 25.871148 8.294783 -8.484181 7.433517 2.071291 -12.957516 1.502055 -27.968823 -46.019066 13.992214 15.922676 39.926450 -37.599409 18.315817 -34.568793 1.979325 0.000000 0.000000 0.000000 11.363331 -1.872601 8.272819 -7.856580 -0.477242 -0.530169 -0.754785 -14.084094 31.790135 8.265648 -49.073180 41.376986 0.000000 0.000000 0.000000 -2.339769 6.009221 -3.362386 -8.934655 5.654178 30.275515 0.247310 2.029309 -19.134819 10.088787 -4.412079 -13.784342 -5.562293 -0.483862 1.750581 0.000000 0.000000 0.000000 2.720661 8.922304 5.837807 -68.020974 -5.437097 20.600693 -8.126622 -82.969604 0.634854 1.731461 -11.390348 0.315665 1.734842 -11.395718 0.000000 0.000000 0.000000 0.000000 0.000000 0.000000 0.000000 -9.880756 -0.681363 0.477916 79.139822 7.979042 16.703171 76.789336 62.837390 -155.909421 -135.024212 -89.110271 -165.515971 39.771268 -87.241465 -0.000000 0.000000 0.000000 0.000000 0.000000 0.000000 0.000000 
